<?xml version="1.0" encoding="UTF-8" standalone="no"?>
<!-- Created with Inkscape (http://www.inkscape.org/) -->

<svg
   xmlns:dc="http://purl.org/dc/elements/1.1/"
   xmlns:cc="http://creativecommons.org/ns#"
   xmlns:rdf="http://www.w3.org/1999/02/22-rdf-syntax-ns#"
   xmlns:svg="http://www.w3.org/2000/svg"
   xmlns="http://www.w3.org/2000/svg"
   xmlns:sodipodi="http://sodipodi.sourceforge.net/DTD/sodipodi-0.dtd"
   xmlns:inkscape="http://www.inkscape.org/namespaces/inkscape"
   width="210mm"
   height="297mm"
   viewBox="0 0 744.09448819 1052.3622047"
   id="svg2"
   version="1.1"
   inkscape:version="0.91 r13725"
   sodipodi:docname="iconografia.svg"
   inkscape:export-filename="/opt/lampp/htdocs/Controle_eleitoral/_img/buttom_tape.png"
   inkscape:export-xdpi="232.06805"
   inkscape:export-ydpi="232.06805">
  <defs
     id="defs4" />
  <sodipodi:namedview
     id="base"
     pagecolor="#ffffff"
     bordercolor="#666666"
     borderopacity="1.0"
     inkscape:pageopacity="0.0"
     inkscape:pageshadow="2"
     inkscape:zoom="0.98994949"
     inkscape:cx="181.66098"
     inkscape:cy="862.43453"
     inkscape:document-units="px"
     inkscape:current-layer="layer1"
     showgrid="false"
     inkscape:object-nodes="true"
     inkscape:object-paths="true"
     inkscape:window-width="1364"
     inkscape:window-height="738"
     inkscape:window-x="0"
     inkscape:window-y="1"
     inkscape:window-maximized="1"
     inkscape:snap-global="true"
     showguides="true"
     inkscape:guide-bbox="true">
    <sodipodi:guide
       position="0,0"
       orientation="0,744.09449"
       id="guide4136" />
    <sodipodi:guide
       position="744.09449,0"
       orientation="-1052.3622,0"
       id="guide4138" />
    <sodipodi:guide
       position="744.09449,1052.3622"
       orientation="0,-744.09449"
       id="guide4140" />
    <sodipodi:guide
       position="0,1052.3622"
       orientation="1052.3622,0"
       id="guide4142" />
    <sodipodi:guide
       position="118.50451,1043.3929"
       orientation="0,1"
       id="guide4295" />
  </sodipodi:namedview>
  <metadata
     id="metadata7">
    <rdf:RDF>
      <cc:Work
         rdf:about="">
        <dc:format>image/svg+xml</dc:format>
        <dc:type
           rdf:resource="http://purl.org/dc/dcmitype/StillImage" />
        <dc:title></dc:title>
      </cc:Work>
    </rdf:RDF>
  </metadata>
  <g
     inkscape:label="Camada 1"
     inkscape:groupmode="layer"
     id="layer1">
    <rect
       style="opacity:1;fill:#ff0000;fill-opacity:1;stroke:none;stroke-width:15;stroke-linecap:butt;stroke-linejoin:miter;stroke-miterlimit:4;stroke-dasharray:none;stroke-dashoffset:0;stroke-opacity:1"
       id="rect4148"
       width="108.8797"
       height="108.8797"
       x="0"
       y="2.6807222e-05" />
    <path
       style="opacity:1;fill:#000000;fill-opacity:0.26148409;stroke:none;stroke-width:15;stroke-linecap:butt;stroke-linejoin:miter;stroke-miterlimit:4;stroke-dasharray:none;stroke-dashoffset:0;stroke-opacity:1"
       d="m 17.47567,90.448738 73.928359,0 4.405092,18.430992 -83.063179,0 z"
       id="rect4233"
       inkscape:connector-curvature="0"
       sodipodi:nodetypes="ccccc" />
    <g
       id="g4220"
       transform="matrix(1.1961267,0,0,1.1961267,-8.3895094,-5.349743)"
       style="">
      <ellipse
         ry="16.414978"
         rx="13.637059"
         cy="33.62336"
         cx="53.285545"
         id="path4150"
         style="opacity:0.96100003;fill:#d1d1d1;fill-opacity:1;stroke:none;stroke-width:15;stroke-linecap:butt;stroke-linejoin:miter;stroke-miterlimit:4;stroke-dasharray:none;stroke-dashoffset:0;stroke-opacity:1" />
      <path
         id="path4152"
         d="m 36.037109,48.744141 c -0.22156,7.45e-4 -0.442903,0.0169 -0.662109,0.04883 -2.509385,0.389882 -4.421654,2.264761 -6.033203,4.089843 -4.062333,4.565433 -8.188601,15.390605 -7.693359,27.964844 -0.739035,0.90977 0.474786,2.202967 1.480468,1.78125 5.139807,-0.09498 10.279791,0.02452 15.419922,0.04687 4.659073,0.04946 9.319215,0.08653 13.978516,0.08789 4.659301,-0.0014 9.319442,-0.03843 13.978515,-0.08789 5.140131,-0.02235 10.280115,-0.141855 15.419922,-0.04687 1.005682,0.421717 2.219504,-0.87148 1.480469,-1.78125 0.495242,-12.574239 -3.631026,-23.399411 -7.693359,-27.964844 -1.611549,-1.825082 -3.523819,-3.699961 -6.033203,-4.089843 -0.219206,-0.03193 -0.44055,-0.04808 -0.66211,-0.04883 -0.66468,-0.0022 -1.331078,0.12827 -1.953125,0.353515 -2.752318,1.148663 -4.97014,3.218564 -7.494141,4.759766 -2.071975,1.364714 -4.546513,2.309769 -7.042968,2.261719 -2.496455,0.04805 -4.970994,-0.897005 -7.042969,-2.261719 -2.524001,-1.541202 -4.741823,-3.611103 -7.494141,-4.759766 -0.622047,-0.225245 -1.288445,-0.35575 -1.953125,-0.353515 z"
         style="opacity:0.96100003;fill:#1a1a1a;fill-opacity:1;stroke:none;stroke-width:15;stroke-linecap:butt;stroke-linejoin:miter;stroke-miterlimit:4;stroke-dasharray:none;stroke-dashoffset:0;stroke-opacity:1"
         inkscape:connector-curvature="0" />
      <path
         id="path4183"
         d="m 47.955078,55.181641 c 0,0 -8.840123,10.708389 1.111328,27.560547 0.01302,4.9e-5 0.02604,-4.9e-5 0.03906,0 l 7.748047,-0.0059 c 0.06706,-3.05e-4 0.134111,-0.0016 0.201172,-0.002 0.0046,-0.0089 8.142016,-15.716632 0.04102,-27.550781 l -0.002,0 c -1.451385,0.60685 -3.004678,0.965606 -4.566406,0.935547 -1.563173,0.03009 -3.117774,-0.329629 -4.570313,-0.9375 -5.46e-4,-2.29e-4 -0.0014,2.28e-4 -0.002,0 z"
         style="fill:#fff6f6;fill-opacity:1;fill-rule:evenodd;stroke:none;stroke-width:1px;stroke-linecap:butt;stroke-linejoin:miter;stroke-opacity:1"
         inkscape:connector-curvature="0" />
      <path
         id="path4167"
         d="m 43.603516,52.601562 -4.585938,2.992188 5.933594,3.03125 -4.923828,2.904297 c 0.716067,11.764123 6.272909,21.145028 6.302734,21.195312 0.912143,0.0056 1.824202,0.01401 2.736328,0.01758 A 6.0694194,18.651184 0 0 1 46.457031,67.427734 6.0694194,18.651184 0 0 1 47.955078,55.181641 c -0.866637,-0.362809 -1.696598,-0.814352 -2.470703,-1.324219 -0.642063,-0.392055 -1.264584,-0.819246 -1.880859,-1.25586 z m 17.847656,0 c -0.616275,0.436614 -1.238796,0.863805 -1.88086,1.25586 -0.775304,0.510657 -1.606518,0.963076 -2.474609,1.326172 a 6.0694194,18.651184 0 0 1 1.501953,12.24414 6.0694194,18.651184 0 0 1 -2.61914,15.314454 c 0.915381,-0.0035 1.830696,-0.01199 2.746093,-0.01758 0.02983,-0.05028 5.586667,-9.431189 6.302735,-21.195312 L 60.103516,58.625 66.037109,55.59375 61.451172,52.601562 Z"
         style="fill:#808080;fill-rule:evenodd;stroke:none;stroke-width:1px;stroke-linecap:butt;stroke-linejoin:miter;stroke-opacity:1"
         inkscape:connector-curvature="0" />
      <path
         inkscape:connector-curvature="0"
         id="path4209"
         d="m 39.017578,55.59375 5.933594,3.03125 2.111669,0.702947 0.892237,-4.146306 -4.351562,-2.580079 z"
         style="fill:#b3b3b3;fill-opacity:1;fill-rule:evenodd;stroke:none;stroke-width:1px;stroke-linecap:butt;stroke-linejoin:miter;stroke-opacity:1" />
      <path
         inkscape:connector-curvature="0"
         id="path4175"
         d="m 47.062841,59.327947 5.435833,-3.208298 c 0,0 -3.034441,-0.19964 -4.543596,-0.938008 -1.509155,-0.738368 -0.892237,4.146306 -0.892237,4.146306 z"
         style="fill:#cccccc;fill-rule:evenodd;stroke:none;stroke-width:1px;stroke-linecap:butt;stroke-linejoin:miter;stroke-opacity:1" />
      <path
         style="fill:#cccccc;fill-rule:evenodd;stroke:none;stroke-width:1px;stroke-linecap:butt;stroke-linejoin:miter;stroke-opacity:1"
         d="m 57.989358,59.327947 -5.435833,-3.208298 c 0,0 3.034441,-0.19964 4.543596,-0.938008 1.509155,-0.738368 0.892237,4.146306 0.892237,4.146306 z"
         id="path4177"
         inkscape:connector-curvature="0" />
      <path
         sodipodi:nodetypes="ccccccccccc"
         inkscape:connector-curvature="0"
         id="path4179"
         d="m 49.066406,82.742188 -0.766161,-1.936933 2.775593,-20.728525 -1.669965,-2.131671 3.185194,-1.828058 3.047982,1.828058 -1.669965,2.131671 2.775593,20.728525 -0.766161,1.936933 -3.456055,0 z"
         style="fill:#4d4d4d;fill-rule:evenodd;stroke:none;stroke-width:1px;stroke-linecap:butt;stroke-linejoin:miter;stroke-opacity:1" />
      <path
         style="fill:#b3b3b3;fill-opacity:1;fill-rule:evenodd;stroke:none;stroke-width:1px;stroke-linecap:butt;stroke-linejoin:miter;stroke-opacity:1"
         d="M 66.03711,55.59375 60.103516,58.625 57.991847,59.327947 57.09961,55.181641 61.451172,52.601562 Z"
         id="path4211"
         inkscape:connector-curvature="0" />
      <path
         id="path4213"
         d="m 52.591797,56.117188 -0.402344,0.230468 0,26.394532 0.333985,0 3.455078,0 0.765625,-1.9375 -2.775391,-20.728516 1.669922,-2.13086 -3.046875,-1.828124 z"
         style="fill:#3b3b3b;fill-opacity:1;fill-rule:evenodd;stroke:none;stroke-width:1px;stroke-linecap:butt;stroke-linejoin:miter;stroke-opacity:1"
         inkscape:connector-curvature="0" />
      <ellipse
         style="opacity:0.96100003;fill:#ffffff;fill-opacity:1;stroke:none;stroke-width:15;stroke-linecap:butt;stroke-linejoin:miter;stroke-miterlimit:4;stroke-dasharray:none;stroke-dashoffset:0;stroke-opacity:1"
         id="ellipse4218"
         cx="55.78373"
         cy="30.686434"
         rx="9.6236448"
         ry="11.584018" />
    </g>
    <path
       sodipodi:nodetypes="ccccc"
       inkscape:connector-curvature="0"
       id="path4236"
       d="m 17.47567,90.448738 73.928359,0 -7.559194,18.430992 -59.49175,0 z"
       style="opacity:1;fill:#000000;fill-opacity:0.26148406;stroke:none;stroke-width:15;stroke-linecap:butt;stroke-linejoin:miter;stroke-miterlimit:4;stroke-dasharray:none;stroke-dashoffset:0;stroke-opacity:1" />
    <rect
       y="2.6807222e-05"
       x="108.8797"
       height="108.8797"
       width="108.8797"
       id="rect4238"
       style="opacity:1;fill:#008080;fill-opacity:1;stroke:none;stroke-width:15;stroke-linecap:butt;stroke-linejoin:miter;stroke-miterlimit:4;stroke-dasharray:none;stroke-dashoffset:0;stroke-opacity:1" />
    <path
       style="opacity:0.122;fill:#000000;fill-opacity:1;stroke:none;stroke-width:3;stroke-linecap:butt;stroke-linejoin:miter;stroke-miterlimit:4;stroke-dasharray:none;stroke-dashoffset:0;stroke-opacity:1"
       d="m 142.05418,55.825462 59.77443,0 7.85715,53.054268 -84.04804,0 8.20749,-35.229074 z"
       id="rect4362"
       inkscape:connector-curvature="0"
       sodipodi:nodetypes="cccccc" />
    <path
       sodipodi:nodetypes="cccccc"
       inkscape:connector-curvature="0"
       id="path4365"
       d="m 142.05418,55.825462 59.77443,0 -7.21592,53.054268 -53.31761,0 -7.44987,-35.229074 z"
       style="opacity:0.138;fill:#000000;fill-opacity:1;stroke:none;stroke-width:3;stroke-linecap:butt;stroke-linejoin:miter;stroke-miterlimit:4;stroke-dasharray:none;stroke-dashoffset:0;stroke-opacity:1" />
    <rect
       style="opacity:1;fill:#008080;fill-opacity:1;stroke:#ffffff;stroke-width:3.01573372;stroke-linecap:butt;stroke-linejoin:miter;stroke-miterlimit:4;stroke-dasharray:none;stroke-dashoffset:0;stroke-opacity:1"
       id="rect4268"
       width="51.415482"
       height="50.263084"
       x="151.69577"
       y="-41.446533"
       ry="10.380835"
       rx="10.286339"
       transform="matrix(0.89657303,0.44289592,-0.56730004,0.82351118,0,0)" />
    <g
       id="g4278"
       transform="matrix(0.75476295,0.37284351,-0.46686674,0.67771894,72.509091,-34.189615)"
       style="stroke-width:3.09338355;stroke-miterlimit:4;stroke-dasharray:none">
      <rect
         style="opacity:1;fill:#ffffff;fill-opacity:1;stroke:#ffffff;stroke-width:3.62318444;stroke-linecap:butt;stroke-linejoin:miter;stroke-miterlimit:4;stroke-dasharray:none;stroke-dashoffset:0;stroke-opacity:1"
         id="rect4270"
         width="14.608763"
         height="14.608763"
         x="143.07379"
         y="37.88958" />
      <rect
         y="61.996723"
         x="143.07379"
         height="14.608763"
         width="14.608763"
         id="rect4272"
         style="opacity:1;fill:#008080;fill-opacity:0.26148406;stroke:#ffffff;stroke-width:3.62318444;stroke-linecap:butt;stroke-linejoin:miter;stroke-miterlimit:4;stroke-dasharray:none;stroke-dashoffset:0;stroke-opacity:1" />
      <path
         inkscape:connector-curvature="0"
         id="path4274"
         d="m 164.10714,38.076488 20,0"
         style="fill:none;fill-rule:evenodd;stroke:#ffffff;stroke-width:3.62318444;stroke-linecap:butt;stroke-linejoin:miter;stroke-miterlimit:4;stroke-dasharray:none;stroke-opacity:1" />
      <path
         style="fill:none;fill-rule:evenodd;stroke:#ffffff;stroke-width:3.62318444;stroke-linecap:butt;stroke-linejoin:miter;stroke-miterlimit:4;stroke-dasharray:none;stroke-opacity:1"
         d="m 164.10714,62.362202 20,0"
         id="path4276"
         inkscape:connector-curvature="0" />
    </g>
    <path
       style="opacity:1;fill:#ffffff;fill-opacity:1;stroke:#008080;stroke-width:2.00000024;stroke-linecap:butt;stroke-linejoin:miter;stroke-miterlimit:4;stroke-dasharray:none;stroke-dashoffset:0;stroke-opacity:1"
       inkscape:transform-center-y="-1.5862059"
       d="M 155.28293,39.705133 164.01032,52.021887 148.98,50.622128 113.85598,30.343261 120.15891,19.426266 Z"
       id="path4357"
       inkscape:connector-curvature="0"
       sodipodi:nodetypes="ccc"
       inkscape:transform-center-x="-0.40408" />
    <path
       style="fill:none;fill-rule:evenodd;stroke:#008080;stroke-width:3;stroke-linecap:butt;stroke-linejoin:miter;stroke-opacity:1;stroke-miterlimit:4;stroke-dasharray:none"
       d="m 148.98,50.622128 6.30293,-10.916995"
       id="path4360"
       inkscape:connector-curvature="0" />
    <rect
       style="opacity:1;fill:#ffcc00;fill-opacity:1;stroke:none;stroke-width:15;stroke-linecap:butt;stroke-linejoin:miter;stroke-miterlimit:4;stroke-dasharray:none;stroke-dashoffset:0;stroke-opacity:1"
       id="rect4367"
       width="108.8797"
       height="108.8797"
       x="217.7594"
       y="2.6807222e-05" />
    <path
       style="opacity:0.127;fill:#000000;fill-opacity:1;stroke:#ffffff;stroke-width:0;stroke-linecap:butt;stroke-linejoin:miter;stroke-miterlimit:4;stroke-dasharray:none;stroke-dashoffset:0;stroke-opacity:1"
       d="m 249.69668,40.393921 44.97176,0 6.07142,68.485799 -57.11462,0 z"
       id="rect4410"
       inkscape:connector-curvature="0"
       sodipodi:nodetypes="ccccc" />
    <path
       sodipodi:nodetypes="ccccc"
       inkscape:connector-curvature="0"
       id="path4413"
       d="m 249.69668,40.393921 44.97176,0 -7.06056,68.485799 -30.34558,0 z"
       style="opacity:0.109;fill:#000000;fill-opacity:1;stroke:#ffffff;stroke-width:0;stroke-linecap:butt;stroke-linejoin:miter;stroke-miterlimit:4;stroke-dasharray:none;stroke-dashoffset:0;stroke-opacity:1" />
    <g
       id="g4396"
       transform="translate(-3.8653048,-3.0466878)"
       style="">
      <path
         id="path4391"
         d="m 274.15234,23.357422 c -9.61681,0.777823 -18.40006,8.309804 -20.24138,17.845566 -1.26021,5.985249 0.14669,12.208734 2.64663,17.686873 3.00308,7.283889 5.84358,14.826098 10.88772,20.994905 2.43845,3.429187 7.00626,5.498703 11.15482,4.315397 3.58619,-1.153835 6.18083,-4.156494 8.14792,-7.237272 4.18704,-6.889585 7.2491,-14.386339 10.09845,-21.906332 1.40171,-3.787516 2.24749,-7.883188 1.6442,-11.922866 -0.91035,-7.524716 -5.89296,-14.399744 -12.77097,-17.59026 -3.58984,-1.741718 -7.60184,-2.37521 -11.56739,-2.186011 z"
         style="opacity:1;fill:#ffffff;fill-opacity:1;stroke:none;stroke-width:3;stroke-linecap:butt;stroke-linejoin:miter;stroke-miterlimit:4;stroke-dasharray:none;stroke-dashoffset:0;stroke-opacity:1"
         inkscape:connector-curvature="0" />
      <rect
         y="71.647919"
         x="266.06454"
         height="20"
         width="20"
         id="rect4394"
         style="opacity:1;fill:#ffffff;fill-opacity:1;stroke:none;stroke-width:3;stroke-linecap:butt;stroke-linejoin:miter;stroke-miterlimit:4;stroke-dasharray:none;stroke-dashoffset:0;stroke-opacity:1" />
    </g>
    <path
       style="fill:none;fill-rule:evenodd;stroke:#ffcc00;stroke-width:3;stroke-linecap:butt;stroke-linejoin:miter;stroke-miterlimit:4;stroke-dasharray:none;stroke-opacity:1"
       d="m 261.875,79.549702 20.32424,0"
       id="path4400"
       inkscape:connector-curvature="0" />
    <path
       inkscape:connector-curvature="0"
       id="path4402"
       d="m 261.875,84.817559 20.32424,0"
       style="fill:none;fill-rule:evenodd;stroke:#ffcc00;stroke-width:3;stroke-linecap:butt;stroke-linejoin:miter;stroke-miterlimit:4;stroke-dasharray:none;stroke-opacity:1" />
    <path
       style="fill:#ffffff;fill-opacity:1;fill-rule:evenodd;stroke:#ffffff;stroke-width:3;stroke-linecap:butt;stroke-linejoin:miter;stroke-miterlimit:4;stroke-dasharray:none;stroke-opacity:1"
       d="m 266.42857,91.960416 11.2171,0"
       id="path4404"
       inkscape:connector-curvature="0" />
    <text
       xml:space="preserve"
       style="font-style:normal;font-weight:bold;font-size:40px;line-height:125%;font-family:'Times New Roman';letter-spacing:0px;word-spacing:0px;fill:#ff6600;fill-opacity:1;stroke:none;stroke-width:1px;stroke-linecap:butt;stroke-linejoin:miter;stroke-opacity:1;-inkscape-font-specification:'Times New Roman,  Bold';font-stretch:normal;font-variant:normal;"
       x="260.51956"
       y="62.71764"
       id="text4406"
       sodipodi:linespacing="125%"><tspan
         sodipodi:role="line"
         id="tspan4408"
         x="260.51956"
         y="62.71764"
         style="font-style:normal;font-variant:normal;font-weight:bold;font-stretch:normal;font-family:'Times New Roman';-inkscape-font-specification:'Times New Roman,  Bold';fill:#ff6600;fill-opacity:1;">?</tspan></text>
    <path
       style="fill:none;fill-rule:evenodd;stroke:#ffffff;stroke-width:5;stroke-linecap:round;stroke-linejoin:miter;stroke-miterlimit:4;stroke-dasharray:none;stroke-opacity:1"
       d="m 270.44818,6.1174501 0,7.3470119"
       id="path4423"
       inkscape:connector-curvature="0" />
    <path
       inkscape:connector-curvature="0"
       id="path4425"
       d="m 237.71987,17.80319 6.3627,3.673506"
       style="fill:none;fill-rule:evenodd;stroke:#ffffff;stroke-width:5;stroke-linecap:round;stroke-linejoin:miter;stroke-miterlimit:4;stroke-dasharray:none;stroke-opacity:1" />
    <path
       style="fill:none;fill-rule:evenodd;stroke:#ffffff;stroke-width:5;stroke-linecap:round;stroke-linejoin:miter;stroke-miterlimit:4;stroke-dasharray:none;stroke-opacity:1"
       d="m 232.68202,44.136142 7.34702,0"
       id="path4427"
       inkscape:connector-curvature="0" />
    <path
       style="fill:none;fill-rule:evenodd;stroke:#ffffff;stroke-width:5;stroke-linecap:round;stroke-linejoin:miter;stroke-miterlimit:4;stroke-dasharray:none;stroke-opacity:1"
       d="m 307.98289,17.80319 -6.3627,3.673506"
       id="path4429"
       inkscape:connector-curvature="0" />
    <path
       inkscape:connector-curvature="0"
       id="path4431"
       d="m 313.02074,44.136142 -7.34702,0"
       style="fill:none;fill-rule:evenodd;stroke:#ffffff;stroke-width:5;stroke-linecap:round;stroke-linejoin:miter;stroke-miterlimit:4;stroke-dasharray:none;stroke-opacity:1" />
    <rect
       y="2.6807222e-05"
       x="326.6391"
       height="108.8797"
       width="108.8797"
       id="rect4433"
       style="opacity:1;fill:#000000;fill-opacity:1;stroke:none;stroke-width:15;stroke-linecap:butt;stroke-linejoin:miter;stroke-miterlimit:4;stroke-dasharray:none;stroke-dashoffset:0;stroke-opacity:1" />
    <text
       xml:space="preserve"
       style="font-style:normal;font-variant:normal;font-weight:bold;font-stretch:normal;font-size:86.69928741px;line-height:125%;font-family:'Times New Roman';-inkscape-font-specification:'Times New Roman,  Bold';letter-spacing:0px;word-spacing:0px;fill:#ffffff;fill-opacity:1;stroke:none;stroke-width:1px;stroke-linecap:butt;stroke-linejoin:miter;stroke-opacity:1"
       x="368.61169"
       y="83.81942"
       id="text4465"
       sodipodi:linespacing="125%"><tspan
         sodipodi:role="line"
         id="tspan4467"
         x="368.61169"
         y="83.81942"
         style="font-style:normal;font-variant:normal;font-weight:bold;font-stretch:normal;font-family:'Times New Roman';-inkscape-font-specification:'Times New Roman,  Bold';fill:#ffffff">i</tspan></text>
  </g>
</svg>
